<?xml version="1.0" standalone="no"?>
<!DOCTYPE svg PUBLIC "-//W3C//DTD SVG 20010904//EN"
 "http://www.w3.org/TR/2001/REC-SVG-20010904/DTD/svg10.dtd">
<svg version="1.0" xmlns="http://www.w3.org/2000/svg"
 width="1472.000000pt" height="832.000000pt" viewBox="0 0 1472.000000 832.000000"
 preserveAspectRatio="xMidYMid meet">

<g transform="translate(0.000000,832.000000) scale(0.100000,-0.100000)"
fill="#000000" stroke="none">
<path d="M7320 6820 c-136 -13 -322 -45 -495 -84 -325 -73 -382 -93 -482 -163
-65 -45 -265 -245 -379 -378 -38 -44 -106 -116 -150 -160 -124 -123 -169 -226
-179 -413 -4 -69 -15 -135 -30 -187 -126 -421 -161 -620 -152 -884 6 -185 32
-337 94 -541 34 -112 57 -157 160 -306 90 -131 172 -216 270 -280 32 -22 103
-81 158 -132 113 -105 238 -191 409 -282 135 -72 137 -74 155 -211 12 -93 8
-122 -18 -115 -9 2 -32 8 -51 11 -52 11 -252 91 -362 145 -240 120 -490 294
-721 504 -121 109 -109 108 -197 17 -41 -43 -145 -141 -230 -217 -233 -208
-421 -387 -430 -409 -4 -11 -3 -29 2 -39 14 -25 116 -128 203 -203 68 -58 95
-80 290 -237 172 -139 441 -308 638 -401 686 -324 1446 -436 2237 -330 220 30
273 41 490 100 329 90 732 276 1057 488 219 142 723 593 723 647 1 14 -28 81
-62 150 -60 119 -69 131 -178 239 -107 106 -327 300 -412 365 l-38 28 -152
-154 c-167 -168 -340 -311 -489 -406 -200 -126 -604 -308 -639 -287 -13 8 -13
195 -1 228 7 17 28 32 78 52 163 65 304 160 466 314 68 64 155 138 193 163
220 147 417 494 480 848 34 195 14 598 -41 785 -45 155 -56 192 -80 253 -15
37 -38 95 -51 130 -18 46 -26 90 -30 165 -7 120 -34 231 -70 289 -15 23 -62
78 -105 122 -43 45 -88 95 -100 111 -13 17 -54 64 -93 106 -39 41 -113 121
-164 177 -148 162 -258 219 -552 287 -353 81 -728 118 -970 95z m448 -215
c237 -25 499 -77 717 -142 80 -24 96 -33 140 -78 28 -28 65 -57 83 -65 34 -13
52 -43 52 -83 0 -18 10 -26 43 -37 38 -14 43 -19 53 -60 9 -39 15 -45 45 -53
47 -12 57 -23 66 -70 7 -36 12 -41 48 -51 39 -11 40 -13 45 -61 5 -49 5 -49
50 -60 43 -10 45 -13 54 -55 5 -25 12 -255 15 -511 5 -425 8 -467 24 -483 15
-15 17 -38 17 -165 0 -202 0 -203 -77 -263 -109 -86 -120 -138 -49 -233 27
-36 48 -75 52 -100 10 -58 7 -176 -5 -221 -25 -93 -112 -180 -203 -204 -20 -6
-93 -9 -160 -8 l-123 3 -8 75 c-15 144 -79 218 -198 227 -78 6 -134 -11 -162
-49 -17 -23 -21 -47 -25 -140 l-4 -113 -49 -57 -49 -56 -2 -364 -3 -363 -35
-5 c-34 -5 -35 -6 -38 -57 l-3 -52 -57 -3 -57 -3 -3 -48 -3 -47 -432 2 -432 3
-3 40 c-4 47 -13 55 -69 55 l-43 0 0 43 c0 54 -8 65 -50 69 l-35 3 -5 361 -5
360 -37 43 c-59 69 -68 97 -68 210 0 96 -1 102 -27 131 -22 24 -39 32 -80 37
-166 19 -267 -63 -282 -230 l-6 -72 -140 0 c-132 0 -143 2 -195 27 -120 59
-170 148 -170 304 0 106 14 145 77 219 32 37 34 44 30 90 -4 48 -8 53 -85 125
l-81 75 8 645 c7 598 9 649 27 695 22 59 29 65 71 65 27 0 34 4 38 28 14 68
20 76 65 92 42 15 45 18 51 58 6 50 5 48 49 59 31 8 37 15 49 56 8 26 22 49
30 51 9 2 28 7 43 10 20 5 29 14 34 34 3 15 8 35 11 44 2 10 22 23 43 29 28 9
55 29 89 69 46 53 55 58 138 83 113 35 307 80 453 107 278 50 497 61 748 35z
m1989 -3459 c116 -97 163 -151 163 -184 0 -15 -22 -49 -56 -88 -56 -64 -57
-65 -38 -85 10 -11 40 -36 66 -56 l48 -35 -41 -48 c-23 -27 -47 -51 -54 -54
-13 -5 -163 118 -300 247 -51 48 -86 72 -130 88 l-60 22 144 138 c78 77 146
139 150 139 4 0 52 -38 108 -84z m-4216 -98 c45 -40 101 -88 125 -107 l45 -33
-37 -45 -36 -44 28 7 c16 4 42 13 57 21 28 14 32 13 95 -30 37 -25 89 -55 115
-68 45 -22 48 -26 43 -54 -15 -77 -255 -484 -286 -485 -8 0 -39 16 -68 35
l-52 36 24 32 c13 18 31 46 40 64 16 31 15 33 -6 47 -13 8 -36 20 -52 27 -26
12 -30 11 -53 -16 -14 -17 -34 -40 -44 -53 l-19 -22 -55 36 c-32 22 -52 41
-48 48 20 33 87 125 170 233 51 68 93 125 93 128 0 3 -7 5 -15 5 -8 0 -15 5
-15 12 0 18 -92 108 -110 108 -19 0 -70 -50 -70 -68 0 -7 22 -27 50 -44 27
-18 50 -37 50 -41 0 -12 -64 -96 -73 -97 -5 0 -32 20 -60 45 -29 25 -56 45
-62 45 -5 0 -44 -36 -85 -81 l-75 -81 -58 47 -58 47 183 189 c101 105 190 199
198 209 8 11 21 19 27 20 7 0 49 -33 94 -72z m3865 -143 c23 -9 67 -60 157
-180 155 -206 162 -229 84 -282 -23 -15 -72 -49 -108 -75 -74 -53 -74 -53
-167 -36 l-64 12 -55 84 c-153 234 -181 298 -148 331 8 9 61 50 118 92 108 81
112 83 183 54z m-279 -392 c167 -285 174 -300 160 -311 -17 -14 -118 -64 -122
-60 -1 2 -19 35 -38 73 -57 114 -52 110 -125 78 -38 -17 -62 -34 -61 -43 0 -8
17 -51 38 -95 22 -44 37 -83 34 -87 -6 -11 -93 -48 -112 -48 -11 0 -53 77
-136 246 -66 135 -121 249 -123 253 -2 6 108 61 123 61 2 0 27 -44 56 -97 29
-54 54 -100 56 -102 4 -6 102 40 112 53 5 7 -12 48 -41 101 -27 50 -50 94 -51
99 -2 11 82 64 104 65 11 1 53 -62 126 -186z m-2965 108 c68 -32 141 -64 161
-70 20 -7 37 -17 37 -22 0 -18 -43 -101 -55 -105 -6 -3 -32 4 -57 15 -25 10
-50 16 -56 12 -11 -6 -44 -71 -141 -273 -28 -59 -55 -109 -61 -113 -13 -8
-130 44 -130 58 0 5 45 97 100 203 55 107 100 198 100 202 0 4 -18 18 -40 32
-22 14 -40 28 -40 33 0 15 40 87 49 87 5 0 65 -26 133 -59z m2443 -166 c9 -31
13 -60 10 -65 -3 -5 -44 -21 -90 -37 -91 -29 -94 -33 -74 -92 13 -37 24 -38
110 -12 125 37 116 39 147 -27 15 -32 39 -102 52 -155 21 -85 23 -99 10 -107
-17 -11 -322 -112 -326 -108 -1 2 -9 27 -18 56 -18 61 -31 49 109 97 44 15 83
29 87 31 12 7 -18 79 -33 79 -8 0 -58 -11 -111 -24 -54 -13 -104 -21 -111 -18
-14 5 -43 96 -73 230 -17 76 -17 78 2 96 10 11 60 31 110 45 50 14 110 34 135
45 24 11 45 20 46 20 1 1 9 -24 18 -54z m-2050 8 l125 -36 0 -39 c0 -21 5 -46
11 -56 8 -13 1 -51 -34 -167 -24 -82 -52 -184 -62 -225 -10 -41 -21 -78 -24
-82 -6 -7 -137 25 -148 36 -2 2 7 37 21 77 14 40 24 75 22 77 -8 7 -110 31
-116 27 -4 -2 -17 -36 -29 -75 -12 -38 -25 -70 -29 -70 -4 0 -35 10 -70 22
-45 17 -62 27 -58 38 15 52 111 323 128 362 13 31 33 55 54 69 19 11 41 34 49
50 9 16 20 29 25 29 5 0 66 -17 135 -37z m308 -72 c21 -5 40 -11 42 -13 2 -2
-12 -86 -31 -188 -50 -274 -49 -261 -34 -270 8 -5 39 -11 70 -15 81 -9 85 -13
74 -77 -8 -48 -11 -53 -34 -52 -38 1 -277 46 -290 54 -12 8 0 79 45 260 13 52
34 143 46 203 26 119 25 118 112 98z m1162 -172 c24 -203 22 -214 -48 -228
-36 -8 -35 -3 -23 -143 l8 -88 -51 -2 c-28 -1 -61 -2 -73 -2 -21 -1 -23 5 -30
72 -12 139 -12 139 -69 146 -38 5 -52 12 -59 29 -9 20 -40 308 -34 315 1 2 31
4 66 5 l63 2 8 -75 c4 -41 11 -93 15 -115 8 -40 8 -40 51 -38 24 1 45 4 47 6
2 2 -2 54 -8 115 -6 61 -8 115 -4 119 10 10 109 21 119 13 4 -3 14 -62 22
-131z m-836 115 c30 -6 31 -8 31 -62 0 -31 -4 -117 -10 -191 -5 -75 -13 -180
-16 -235 l-6 -99 -67 7 c-36 4 -69 10 -73 14 -7 7 -2 84 22 377 17 197 16 195
55 195 18 0 47 -3 64 -6z m421 -68 l0 -55 -42 -3 -43 -3 -3 -232 -2 -233 -75
0 -75 0 0 234 0 235 -47 3 -48 3 -3 53 -3 52 170 0 171 0 0 -54z"/>
<path d="M7390 6499 c-228 -10 -515 -62 -788 -141 -65 -19 -77 -26 -98 -60
-13 -20 -41 -46 -63 -57 -41 -21 -51 -37 -51 -79 0 -40 -11 -50 -55 -54 l-40
-3 -5 -55 -5 -55 -57 -3 -57 -3 -3 -52 -3 -52 -47 -3 -48 -3 0 -64 0 -64 -62
-3 -63 -3 -7 -600 c-4 -330 -4 -616 -2 -637 4 -28 14 -42 44 -62 76 -50 95
-92 114 -249 6 -47 4 -49 -39 -91 -57 -56 -65 -78 -65 -179 0 -93 14 -126 72
-171 39 -29 117 -49 179 -44 l43 3 30 80 c24 62 43 91 86 135 69 69 126 90
244 90 95 0 147 -20 190 -71 45 -53 56 -90 56 -186 0 -116 11 -150 65 -203
l45 -44 0 -362 c0 -405 -3 -388 72 -382 l43 3 5 -55 5 -55 118 -3 117 -3 0
517 0 516 93 -5 c50 -4 125 -6 164 -7 l73 0 2 -507 3 -508 120 0 120 0 3 51 3
52 47 7 c26 4 50 12 54 18 4 7 8 175 8 374 l0 363 33 37 c64 72 67 81 67 178
1 131 36 202 124 247 86 44 249 31 334 -26 59 -40 100 -98 127 -183 l23 -68
79 0 c70 1 86 4 120 27 74 49 101 124 88 240 -7 56 -12 66 -58 116 -50 53 -51
54 -50 113 3 99 43 170 131 231 l42 29 0 147 c0 124 -3 151 -17 172 -16 23
-18 66 -21 488 l-3 462 -37 0 c-51 0 -62 14 -62 77 l0 53 -32 0 c-48 0 -56 10
-60 65 l-3 50 -50 5 -50 5 -3 53 c-2 28 -7 53 -13 53 -5 1 -13 3 -19 4 -5 1
-23 3 -40 4 -30 1 -30 1 -30 61 l0 59 -44 19 c-24 11 -54 33 -66 50 -28 37
-67 55 -195 86 -262 65 -489 104 -655 112 -63 3 -131 6 -150 7 -19 1 -96 -1
-170 -4z m-442 -880 l-3 -264 -132 -3 -133 -3 0 270 0 270 128 3 c70 2 130 0
135 -3 4 -3 6 -124 5 -270z m-661 -5 l90 -7 7 -214 c4 -118 5 -217 2 -220 -3
-3 -73 32 -155 78 l-151 83 0 143 0 143 58 0 c33 0 99 -3 149 -6z m81 -587
c48 -29 125 -75 172 -101 47 -26 92 -51 100 -56 58 -34 202 -116 290 -165 58
-32 121 -68 140 -81 19 -12 52 -30 73 -40 41 -20 44 -29 21 -62 l-16 -23 -271
2 c-188 1 -274 5 -279 13 -6 8 -8 7 -8 -1 0 -7 -4 -13 -10 -13 -5 0 -10 23
-10 50 0 43 -3 52 -22 59 -13 5 -29 6 -35 4 -10 -4 -13 12 -13 60 0 70 -5 77
-61 77 -32 0 -32 1 -33 85 l-1 50 -65 5 -65 5 -3 93 c-2 50 -1 92 3 92 3 0 45
-24 93 -53z m2390 -44 l-3 -88 -60 0 -60 0 -3 -72 -3 -73 -43 0 c-41 0 -44 -2
-50 -31 -3 -17 -6 -49 -6 -70 0 -37 -2 -39 -30 -39 -17 0 -31 -6 -31 -12 -1
-7 -3 -26 -4 -43 -2 -16 -3 -35 -4 -41 -1 -8 -88 -12 -291 -13 l-290 -1 -11
27 c-13 34 -20 28 181 140 85 48 214 121 285 163 142 84 190 111 310 178 44
24 84 48 90 53 21 20 26 5 23 -78z m-2457 -371 c6 -50 20 -62 72 -62 32 0 37
-3 37 -24 0 -12 3 -51 6 -85 l7 -61 -162 0 -161 0 0 133 c0 74 3 137 7 141 4
4 48 5 98 4 l90 -3 6 -43z"/>
<path d="M9612 3027 c-12 -13 -22 -27 -22 -33 0 -9 57 -59 101 -87 25 -16 26
-16 48 14 12 16 21 33 19 37 -7 18 -97 92 -110 92 -8 0 -24 -10 -36 -23z"/>
<path d="M5708 2693 c-19 -22 -78 -110 -78 -116 0 -8 80 -57 92 -57 11 1 84
101 96 131 4 9 -67 59 -84 59 -6 0 -18 -8 -26 -17z"/>
<path d="M9300 2749 c-14 -12 -34 -27 -44 -35 -18 -12 -14 -20 69 -128 48 -64
94 -121 101 -127 11 -9 23 -5 55 15 22 15 42 33 45 41 7 18 -166 254 -186 254
-8 0 -26 -9 -40 -20z"/>
<path d="M6431 2353 c-9 -17 -41 -132 -41 -147 0 -11 66 -36 93 -36 20 0 26
10 47 74 13 41 22 79 21 83 -2 7 -26 18 -88 37 -16 5 -25 2 -32 -11z"/>
</g>
</svg>
